<?xml version="1.0" ?><!DOCTYPE svg  PUBLIC '-//W3C//DTD SVG 1.1//EN'  'http://www.w3.org/Graphics/SVG/1.1/DTD/svg11.dtd'><svg height="512px" style="enable-background:new 0 0 512 512;" version="1.1" viewBox="0 0 512 512" width="512px" xml:space="preserve" xmlns="http://www.w3.org/2000/svg" xmlns:xlink="http://www.w3.org/1999/xlink"><g id="_x32_10_x2C__FAQ_x2C__Assistance_x2C__call_x2C__consultation_x2C__help"><g><path d="M370.973,102.047l-0.223-0.222l-0.139-0.112    c-4.862-4.889-10.476-9.084-16.615-12.363l-0.083,0.166l-0.084,0.168l-0.056,0.139v0.056l-0.083,0.167l-0.056,0.166l-0.083,0.167    l-0.056,0.167h-0.028l-0.055,0.193l-0.084,0.167l-0.083,0.167l-0.056,0.166l0,0l-0.085,0.167l-0.082,0.167l-0.084,0.166    l-0.055,0.167v0.028l-0.084,0.139l-0.082,0.195l-0.084,0.166l-0.083,0.166l0,0l-0.056,0.168l-0.083,0.166l-0.085,0.167    l-0.082,0.194l-0.084,0.139c-1.057,2.224-2.25,4.391-3.473,6.475c-2.167,3.556-4.585,6.945-7.252,10.113    c6.057,5.751,13.169,10.447,20.978,13.781c7.808,3.306,16.337,5.279,25.311,5.557l-0.249-0.777l-0.084-0.25l-0.055-0.141    l-0.141-0.416l-0.11-0.25l-0.028-0.139l-0.277-0.667l-0.027-0.111l-0.139-0.389l-0.139-0.306l-0.028-0.083l-0.139-0.39    l-0.139-0.334l-0.028-0.055l-0.166-0.361l-0.139-0.389l0,0l-0.167-0.39l-0.167-0.389l0,0l-0.166-0.362l-0.167-0.389l-0.028-0.027    l-0.139-0.334l-0.361-0.75l-0.167-0.389l-0.056-0.083l-0.139-0.278l-0.167-0.389l-0.056-0.111l-0.139-0.25l-0.167-0.36    l-0.083-0.14l-0.111-0.25l-0.195-0.361l-0.082-0.139l-0.111-0.223l-0.194-0.361l-0.085-0.193l-0.109-0.167l-0.195-0.361    l-0.11-0.194l-0.085-0.168l-0.221-0.359l-0.112-0.223l-0.083-0.139l-0.194-0.362l-0.138-0.25l-0.085-0.083l-0.194-0.361    l-0.167-0.277l-0.055-0.084l-0.223-0.333l-0.167-0.306l-0.027-0.056l-0.223-0.333l-0.193-0.334l-0.028-0.028l-0.223-0.333    l-0.224-0.334v-0.027l-0.221-0.333l-0.223-0.333l-0.028-0.028l-0.221-0.333l-0.224-0.334l-0.027-0.027l-0.195-0.306l-0.249-0.333    l-0.028-0.056l-0.194-0.278l-0.249-0.334l-0.057-0.083l-0.194-0.25l-0.224-0.333l-0.248-0.334L377,109.021l-0.082-0.14    l-0.166-0.194l-0.252-0.333l-0.11-0.14l-0.138-0.166L376,107.715l-0.139-0.166l-0.11-0.139l-0.276-0.334l-0.141-0.167    l-0.111-0.138l-0.249-0.307l-0.194-0.223l-0.084-0.111l-0.277-0.333l-0.167-0.194l-0.11-0.111l-0.279-0.333l-0.166-0.194    l-0.111-0.111l-0.277-0.333l-0.166-0.194L373,104.214l-0.277-0.306l-0.277-0.333l-0.306-0.306l-0.167-0.167l-0.111-0.139    l-0.306-0.306l-0.167-0.166l-0.11-0.14L370.973,102.047z M254.972,125.248c3.695,1.527,7.586,2.75,11.587,3.639    c4.89,1.084,10.058,1.667,15.393,1.667c15.226,0,29.313-4.806,40.844-12.976c3.973-2.806,7.668-6.029,10.974-9.613l0.057-0.055    l0.11-0.139c3.252-3.502,6.168-7.392,8.641-11.531c1.334-2.167,2.528-4.418,3.613-6.752l0.054-0.139l0.056-0.111l0.029-0.055    l0.082-0.168l0.166-0.361l0.029-0.11l0.084-0.14l0.054-0.166l0.085-0.167l0,0l0.056-0.167l0.083-0.139l0.194-0.5l0.083-0.139    l0.056-0.166l0.028-0.057l0.027-0.11l0.083-0.167l0.056-0.139l0.083-0.168c-7.528-3.11-15.698-4.973-24.255-5.279h-0.056    l-0.694-0.026h-0.195l-0.055-0.028h-0.25h-0.139h-0.111h-0.251h-0.082h-0.167H320.6h-0.723h-0.195    c-0.888,0-1.75,0.028-2.639,0.084h-0.083c-1.808,0.111-3.612,0.25-5.391,0.472l-0.11,0.028    c-15.894,2.028-30.119,9.363-40.9,20.143c-0.582,0.584-1.167,1.168-1.721,1.751l-0.057,0.083l-0.361,0.389l-0.194,0.223    l-0.583,0.639l-0.084,0.084C262.28,110.855,258,117.718,254.972,125.248z M336.603,115.217c-3.001,2.973-6.25,5.695-9.696,8.141    c-12.697,9.002-28.229,14.309-44.955,14.309c-5.778,0-11.446-0.639-16.922-1.861c-4.277-0.945-8.417-2.25-12.392-3.861    c-1.833,6.279-2.806,12.92-2.806,19.81c0,19.533,7.919,37.231,20.727,50.04c12.81,12.781,30.48,20.727,50.041,20.727    c19.531,0,37.23-7.945,50.012-20.727c12.809-12.809,20.728-30.507,20.728-50.04c0-5.251-0.557-10.335-1.642-15.253    c-10.668-0.028-20.837-2.251-30.062-6.168C351.051,126.691,343.271,121.523,336.603,115.217z M347.577,270.003v-45.205    c-8.39,3.112-17.504,4.835-26.978,4.835c-10.53,0-20.561-2.111-29.701-5.891v48.596l26.755,57.041L347.577,270.003z     M354.162,272.143c-0.082,0.139-0.139,0.306-0.249,0.445l-33.342,66.099c-0.333,0.667-0.89,1.222-1.583,1.556    c-1.723,0.805-3.752,0.055-4.529-1.639l-8.086-17.227l-21.838-46.566c-0.112-0.195-0.194-0.389-0.278-0.612l-13.475-28.729    c-15.56,6.058-28.841,10.892-40.064,15.003c-49.068,17.894-57.903,21.117-58.626,55.986c-0.305,14.67,4.113,27.533,12.031,38.564    c7.809,10.892,19.032,20.061,32.564,27.451v-60.182c0.026-1.583,1.111-3,2.722-3.334c1.833-0.389,3.639,0.777,4.029,2.611    l14.67,68.878c27.256,13.254,55.069,20.394,82.826,20.644c26.757,0.25,53.541-5.89,79.741-19.061l14.309-70.154    c0.194-1.695,1.639-3.001,3.39-3.001c1.89,0,3.417,1.528,3.417,3.417v59.486c14.226-8.085,25.923-18.227,33.731-30.535    c7.835-12.336,11.779-26.922,10.446-43.731c-2.14-26.59-13.447-30.702-58.152-47.012c-11.254-4.112-24.59-8.974-40.203-15.087    L354.19,272.06L354.162,272.143z M124.582,150.781c0.721-0.889,1.277-1.945,1.639-3.168c0.388-1.25,0.555-2.667,0.555-4.279    c0-3.306-0.721-5.75-2.167-7.418c-1.472-1.611-3.36-2.445-5.722-2.445s-4.252,0.834-5.724,2.474    c-1.444,1.64-2.195,4.111-2.195,7.419c0,3.334,0.751,5.861,2.195,7.501c1.472,1.667,3.306,2.501,5.557,2.501    c0.833,0,1.611-0.139,2.362-0.418c-1.167-0.75-2.362-1.361-3.557-1.777l1.611-3.361    C121.024,148.475,122.83,149.447,124.582,150.781z M129.193,154.031c1.418,1,2.945,1.806,4.612,2.418l-2.111,4.111    c-0.861-0.25-1.723-0.611-2.557-1.083c-0.167-0.083-1.444-0.945-3.834-2.556c-1.862,0.833-3.945,1.25-6.224,1.25    c-4.389,0-7.835-1.307-10.335-3.891c-2.473-2.611-3.722-6.251-3.722-10.947c0-4.667,1.249-8.307,3.75-10.891    c2.5-2.611,5.891-3.918,10.141-3.918c4.251,0,7.614,1.307,10.086,3.918c2.5,2.584,3.752,6.224,3.752,10.891    c0,2.474-0.362,4.641-1.057,6.529C131.166,151.281,130.332,152.697,129.193,154.031z M92.545,146.309l-3.973-10.587l-3.862,10.587    H92.545z M103.131,157.644h-6.224l-2.472-6.501H82.96l-2.362,6.501h-6.142l11.115-28.591h6.112L103.131,157.644z M55.176,157.644    v-28.591h19.671v4.835H60.982v6.78h11.974v4.834H60.982v12.142H55.176z M163.146,119.773v45.51c0,3.475-0.723,6.809-1.972,9.864    c-1.307,3.168-3.251,6.002-5.613,8.392c-2.388,2.389-5.25,4.334-8.392,5.641c-3.083,1.25-6.417,1.972-9.89,1.972H87.016    l-1.721,1.056c1.221,2.834,3.25,5.251,5.778,6.946c2.473,1.64,5.445,2.583,8.614,2.583h52.177c0.751,0,1.474,0.25,2.029,0.695    l29.896,18.532v-15.81c0-1.889,1.528-3.418,3.418-3.418h4.75c4.308,0,8.196-1.75,11.03-4.584c2.808-2.834,4.585-6.723,4.585-11.03    v-50.733c0-4.279-1.777-8.197-4.585-11.031l-0.167-0.166c-2.806-2.723-6.668-4.418-10.863-4.418H163.146z M137.279,95.518H45.007    c-2.557,0-5.029,0.528-7.252,1.445c-2.306,0.945-4.418,2.389-6.168,4.139c-3.445,3.445-5.585,8.197-5.585,13.449v50.732    c0,3.252,0.556,5.975,1.556,8.225c1.028,2.418,2.585,4.335,4.501,5.863c1.751,1.417,3.834,2.473,6.14,3.25    c2.584,0.889,5.447,1.389,8.391,1.612l3.167,0.194l0.028,21.838l34.481-21.422l1.777-0.527h51.235c2.583,0,5.029-0.5,7.25-1.445    c2.334-0.972,4.447-2.389,6.196-4.139c1.751-1.779,3.167-3.862,4.14-6.196c0.917-2.224,1.446-4.667,1.446-7.253v-47.344    c-0.251-0.472-0.39-1-0.39-1.584c0-0.555,0.139-1.083,0.39-1.555v-0.25c0-2.585-0.528-5.029-1.446-7.253    c-0.944-2.333-2.389-4.417-4.14-6.196C147.281,97.657,142.501,95.518,137.279,95.518z M147.058,437.96    c-1.89,0-3.417-1.528-3.417-3.418s1.527-3.417,3.417-3.417h233.833c1.891,0,3.418,1.527,3.418,3.417s-1.527,3.418-3.418,3.418    H147.058z M283.979,452.186c-1.89,0-3.419-1.528-3.419-3.418s1.529-3.418,3.419-3.418h161.816c1.89,0,3.416,1.528,3.416,3.418    s-1.526,3.418-3.416,3.418H283.979z M462.355,452.186c-1.891,0-3.419-1.528-3.419-3.418s1.528-3.418,3.419-3.418h20.227    c1.889,0,3.417,1.528,3.417,3.418s-1.528,3.418-3.417,3.418H462.355z M137.833,451.769c-1.862,0-3.417-1.528-3.417-3.418    s1.555-3.418,3.417-3.418h76.686c1.888,0,3.417,1.528,3.417,3.418s-1.528,3.418-3.417,3.418H137.833z M171.509,253.805    c1.472-1.167,3.611-0.943,4.806,0.5c1.167,1.473,0.944,3.612-0.5,4.779c-0.139,0.111-42.982,34.592-30.396,54.207    c5.585,8.752,5.807,16.393,6.001,23.867c0.305,11.447,0.611,22.395,27.367,36.286c1.667,0.89,2.333,2.945,1.446,4.612    c-0.861,1.668-2.918,2.334-4.585,1.444c-30.313-15.753-30.673-28.646-31.035-42.204c-0.167-6.474-0.361-13.17-4.947-20.311    C123.802,292.175,171.37,253.916,171.509,253.805z M322.489,73.902h0.11h0.695l0.249,0.027h0.056h0.223l0.277,0.027h0.25    l0.25,0.027h0.029h0.277l0.25,0.029h0.277l0.167,0.026h0.083h0.278l0.277,0.028l0.251,0.028h0.082l0.195,0.026h0.249l0.278,0.029    l0.25,0.027h0.027l0.252,0.027l0.277,0.027l0.248,0.029l1.585,0.166l0.277,0.027c17.672,2.195,33.509,10.28,45.455,22.228    l0.194,0.194c13.949,14.086,22.59,33.48,22.59,54.874c0,17.144-5.558,33.008-14.947,45.899l0.082,0.028l0.277,0.056    c1.418,0.389,2.918,0.584,4.447,0.584c6.334,0,10.779-3.473,13.725-9.086c3.196-6.058,4.751-14.504,5.112-23.895    c0.333-9.613-0.583-20.227-2.362-30.34c-3.777-21.506-11.002-40.455-17.447-42.094l-0.584-0.223    c-1.695-0.805-2.445-2.834-1.639-4.529c0.556-1.193,0.972-2.443,1.277-3.723c0.25-1.222,0.417-2.557,0.417-3.945    c0-4.89-1.946-9.279-5.058-12.476c-3.111-3.167-7.391-5.111-12.141-5.111c-1.723,0-3.362,0.25-4.862,0.694l-0.251,0.083    c-1.639,0.528-3.195,1.306-4.584,2.278l-0.056,0.028c-1.418,1-3.418,0.777-4.558-0.583c-1.443-1.695-3.221-3.084-5.222-4.058    l-0.194-0.083c-2.001-0.945-4.225-1.445-6.586-1.445h-45.427c-2.362,0-4.586,0.5-6.586,1.445    c-2.055,0.945-3.889,2.361-5.362,4.084l-0.055,0.057c-1.112,1.333-3.085,1.61-4.557,0.583c-1.391-0.974-2.973-1.778-4.64-2.307    c-1.585-0.5-3.308-0.777-5.113-0.777c-4.723,0-9.03,1.944-12.142,5.111c-3.111,3.196-5.029,7.586-5.029,12.476    c0,1.389,0.139,2.724,0.416,3.945c0.251,1.195,0.667,2.362,1.168,3.473c0.139,0.278,0.249,0.557,0.333,0.861    c0.444,1.807-0.641,3.668-2.474,4.141c-6.417,1.639-13.669,20.615-17.448,42.094c-1.779,10.113-2.695,20.727-2.333,30.34    c0.333,9.391,1.916,17.837,5.083,23.895c2.946,5.613,7.419,9.086,13.726,9.086c1.556,0,3.057-0.195,4.446-0.584l0.389-0.111    c-9.418-12.864-14.975-28.729-14.975-45.872c0-18.448,6.417-35.425,17.169-48.761l0.028-0.057l0.916-1.11l0.279-0.307l0.194-0.25    l0.973-1.139l0.054-0.028l0.475-0.527l0.139-0.166l0.361-0.391l0.277-0.305l0.223-0.25l1.026-1.084l0.028-0.027l0.5-0.5    l0.167-0.167l0.361-0.36c1.418-1.391,2.89-2.751,4.418-4.029l0.028-0.027l0.526-0.445c1.724-1.444,3.529-2.807,5.362-4.084    l0.057-0.027l0.528-0.39c3.028-2.056,6.195-3.89,9.502-5.501l0.5-0.25l0.166-0.084c0.89-0.416,1.778-0.834,2.695-1.223    l0.611-0.277l0.056-0.028l0.667-0.276l0.139-0.057l0.557-0.223l1.388-0.527l0.694-0.25l0.028-0.027l0.667-0.25l0.223-0.084    l0.473-0.139l0.443-0.167l0.279-0.083l0.61-0.223h0.083l0.723-0.25l0.112-0.027l0.583-0.195l0.333-0.082l0.39-0.111l0.528-0.168    l0.192-0.055l0.724-0.195h0.027l0.695-0.194l0.221-0.056l0.5-0.111l0.446-0.11l0.277-0.083l0.667-0.14l0.084-0.027l0.721-0.167    l0.139-0.027l0.085-0.028l0.861-0.167l0.416-0.083l0.528-0.11l0.194-0.028l0.749-0.139h0.028l0.724-0.14l0.223-0.027l1.943-0.307    l0.085-0.026l0.777-0.083l0.11-0.028c1.223-0.139,2.446-0.278,3.695-0.362l0.223-0.026l0.555-0.028l0.445-0.028l0.973-0.056    l0.111-0.027l0.889-0.027l0.667-0.027h0.333l2.029-0.029L322.489,73.902z" style="fill-rule:evenodd;clip-rule:evenodd;"/></g></g><g id="Layer_1"/></svg>